<svg xmlns="http://www.w3.org/2000/svg" xmlns:xlink="http://www.w3.org/1999/xlink" width="70" height="69" viewBox="0 0 70 69"><defs><path id="pcfia" d="M333 1036v-73h74v73zm3.91-36.69a33.12 33.12 0 1 0 66.25 0 33.12 33.12 0 0 0-66.25 0z"/><path id="pcfib" d="M370.03 966.19a33.12 33.12 0 1 1 0 66.24 33.12 33.12 0 0 1 0-66.24z"/><path id="pcfid" d="M350.75 992.89c0-1.9 1.55-3.44 3.45-3.44h3.88c.06-.22.15-.44.27-.65l4.13-7.15a2.75 2.75 0 1 1 4.77 2.75l-2.91 5.05h11.38l-2.91-5.05a2.75 2.75 0 0 1 4.77-2.75l4.13 7.15c.11.21.2.43.27.65h3.88a3.44 3.44 0 1 1 0 6.88H354.2a3.44 3.44 0 0 1-3.45-3.44zm34.53 25.47h-30.5l-1.2-20.65h32.89zm-16.63-13.77v8.26a1.38 1.38 0 0 0 2.75 0v-8.26a1.38 1.38 0 0 0-2.75 0zm8.26 0v8.26a1.38 1.38 0 0 0 2.75 0v-8.26a1.38 1.38 0 0 0-2.75 0zm-16.52 0v8.26a1.38 1.38 0 1 0 2.75 0v-8.26a1.38 1.38 0 0 0-2.75 0z"/><clipPath id="pcfic"><use fill="#fff" xlink:href="#pcfia"/></clipPath></defs><g><g transform="translate(-335 -965)"><use fill="#fff" xlink:href="#pcfib"/><use fill="#fff" fill-opacity="0" stroke="#fed136" stroke-linecap="round" stroke-linejoin="round" stroke-miterlimit="50" stroke-width="6" clip-path="url(&quot;#pcfic&quot;)" xlink:href="#pcfib"/></g><g transform="translate(-335 -965)"><use fill="#fed136" xlink:href="#pcfid"/></g></g></svg>